<?xml version="1.0" encoding="UTF-8"?><svg xmlns="http://www.w3.org/2000/svg" xmlns:xlink="http://www.w3.org/1999/xlink" version="1.1" id="Layer_1" x="0px" y="0px" viewBox="0 0 60 60" xml:space="preserve"><style type="text/css">.st0{fill:#3B4652;} .st1{fill:#2B79C2;}</style><path class="st0" fill="#3B4652" d="M23.682 30.767h1.372l-.698-1.918z"/><path class="st0" d="M32.948 26.879h-1.156v2.12h1.156a1.062 1.062 0 0 0 0-2.12z" fill="#3B4652"/><path class="st0" d="M30 17.142c-7.09 0-12.858 5.768-12.858 12.858S22.91 42.857 30 42.857 42.857 37.09 42.857 30 37.09 17.142 30 17.142zM27.679 35.06a1 1 0 0 1-1.281-.598l-.617-1.695h-2.802l-.592 1.686a1 1 0 1 1-1.887-.664l2.897-8.242a1 1 0 0 1 .939-.668h.005a1 1 0 0 1 .94.658l2.995 8.242a.999.999 0 0 1-.597 1.281zm5.27-4.06h-1.157v3.12a1 1 0 1 1-2 0V25.88a1 1 0 0 1 1-1h2.156c1.688 0 3.06 1.373 3.06 3.06S34.637 31 32.949 31zm6.607-5.121v8.242a1 1 0 1 1-2 0v-8.242a1 1 0 1 1 2 0z" fill="#3B4652"/><path class="st1" d="M54 34.4v-8.8l-4.97-1c-.42-1.48-1.01-2.9-1.76-4.24l2.81-4.22-6.22-6.22-4.22 2.81c-1.34-.75-2.77-1.34-4.25-1.76L34.4 6h-8.8l-1 4.97c-1.47.42-2.9 1.01-4.24 1.76l-4.22-2.81-6.22 6.22 2.81 4.22c-.75 1.34-1.34 2.77-1.76 4.24L6 25.6v8.8l4.97.99c.42 1.48 1.01 2.91 1.76 4.25l-2.81 4.22 6.22 6.22 4.22-2.81c1.34.75 2.76 1.34 4.24 1.76l1 4.97h8.8l.99-4.97c1.48-.42 2.91-1.01 4.25-1.76l4.22 2.81 6.22-6.22-2.81-4.22c.75-1.34 1.34-2.77 1.76-4.25L54 34.4zM30 44.86c-8.19 0-14.86-6.67-14.86-14.86S21.81 15.14 30 15.14 44.86 21.81 44.86 30 38.19 44.86 30 44.86z" fill="#2B79C2"/><metadata><rdf:RDF xmlns:rdf="http://www.w3.org/1999/02/22-rdf-syntax-ns#" xmlns:rdfs="http://www.w3.org/2000/01/rdf-schema#" xmlns:dc="http://purl.org/dc/elements/1.1/"><rdf:Description about="https://iconscout.com/legal#licenses" dc:title="api,setting,configuration,option,config" dc:description="api,setting,configuration,option,config" dc:publisher="Iconscout" dc:date="2018-04-05" dc:format="image/svg+xml" dc:language="en"><dc:creator><rdf:Bag><rdf:li>Vector Stall</rdf:li></rdf:Bag></dc:creator></rdf:Description></rdf:RDF></metadata></svg>