<?xml version="1.0" encoding="UTF-8"?>
<svg xmlns="http://www.w3.org/2000/svg" xmlns:xlink="http://www.w3.org/1999/xlink" width="24pt" height="24pt" viewBox="0 0 24 24" version="1.1">
<g id="surface1">
<path style=" stroke:none;fill-rule:nonzero;fill:rgb(91.372549%,91.372549%,87.843137%);fill-opacity:1;" d="M 15.851562 0 L 3.414062 0 C 3.066406 0 2.785156 0.28125 2.785156 0.824219 L 2.785156 23.570312 C 2.785156 23.71875 3.066406 24 3.414062 24 L 20.585938 24 C 20.933594 24 21.214844 23.71875 21.214844 23.570312 L 21.214844 5.5625 C 21.214844 5.265625 21.175781 5.167969 21.105469 5.097656 L 16.117188 0.109375 C 16.046875 0.0390625 15.949219 0 15.851562 0 Z M 15.851562 0 "/>
<path style=" stroke:none;fill-rule:nonzero;fill:rgb(85.098039%,84.313725%,79.215686%);fill-opacity:1;" d="M 16.070312 0.0664062 L 16.070312 5.144531 L 21.148438 5.144531 Z M 16.070312 0.0664062 "/>
<path style=" stroke:none;fill-rule:nonzero;fill:rgb(93.333333%,68.627451%,29.411765%);fill-opacity:1;" d="M 20.585938 24 L 3.414062 24 C 3.066406 24 2.785156 23.71875 2.785156 23.371094 L 2.785156 16.714844 L 21.214844 16.714844 L 21.214844 23.371094 C 21.214844 23.71875 20.933594 24 20.585938 24 Z M 20.585938 24 "/>
<path style=" stroke:none;fill-rule:nonzero;fill:rgb(100%,100%,100%);fill-opacity:1;" d="M 11.152344 18.308594 L 11.152344 21.671875 C 11.152344 21.875 11.113281 22.046875 11.039062 22.183594 C 10.964844 22.324219 10.867188 22.433594 10.742188 22.519531 C 10.617188 22.601562 10.472656 22.660156 10.3125 22.695312 C 10.148438 22.726562 9.980469 22.742188 9.808594 22.742188 C 9.722656 22.742188 9.625 22.734375 9.507812 22.71875 C 9.394531 22.699219 9.273438 22.671875 9.152344 22.636719 C 9.027344 22.597656 8.910156 22.554688 8.796875 22.507812 C 8.683594 22.460938 8.585938 22.410156 8.507812 22.351562 L 8.808594 21.875 C 8.847656 21.902344 8.902344 21.933594 8.976562 21.960938 C 9.046875 21.992188 9.125 22.019531 9.210938 22.042969 C 9.296875 22.070312 9.386719 22.089844 9.480469 22.109375 C 9.574219 22.128906 9.664062 22.140625 9.746094 22.140625 C 9.953125 22.140625 10.117188 22.097656 10.242188 22.019531 C 10.363281 21.941406 10.429688 21.804688 10.4375 21.613281 L 10.4375 18.308594 Z M 11.152344 18.308594 "/>
<path style=" stroke:none;fill-rule:nonzero;fill:rgb(100%,100%,100%);fill-opacity:1;" d="M 14.648438 21.53125 C 14.648438 21.6875 14.617188 21.839844 14.554688 21.984375 C 14.488281 22.132812 14.398438 22.261719 14.28125 22.371094 C 14.164062 22.484375 14.019531 22.570312 13.847656 22.636719 C 13.675781 22.703125 13.480469 22.738281 13.261719 22.738281 C 13.167969 22.738281 13.070312 22.730469 12.972656 22.722656 C 12.871094 22.714844 12.769531 22.695312 12.667969 22.671875 C 12.566406 22.648438 12.472656 22.617188 12.378906 22.578125 C 12.289062 22.535156 12.207031 22.484375 12.140625 22.425781 L 12.265625 21.921875 C 12.320312 21.953125 12.390625 21.984375 12.472656 22.011719 C 12.558594 22.042969 12.644531 22.070312 12.734375 22.09375 C 12.824219 22.121094 12.914062 22.140625 13.003906 22.15625 C 13.09375 22.171875 13.175781 22.179688 13.253906 22.179688 C 13.492188 22.179688 13.675781 22.125 13.800781 22.011719 C 13.929688 21.902344 13.992188 21.738281 13.992188 21.519531 C 13.992188 21.386719 13.949219 21.273438 13.859375 21.179688 C 13.769531 21.085938 13.65625 21 13.519531 20.921875 C 13.386719 20.847656 13.242188 20.773438 13.085938 20.695312 C 12.929688 20.617188 12.78125 20.527344 12.644531 20.425781 C 12.507812 20.324219 12.394531 20.199219 12.304688 20.058594 C 12.214844 19.917969 12.171875 19.742188 12.171875 19.53125 C 12.171875 19.339844 12.207031 19.171875 12.277344 19.023438 C 12.347656 18.875 12.441406 18.75 12.5625 18.644531 C 12.679688 18.542969 12.820312 18.460938 12.976562 18.40625 C 13.136719 18.351562 13.300781 18.324219 13.476562 18.324219 C 13.65625 18.324219 13.839844 18.34375 14.023438 18.375 C 14.207031 18.410156 14.355469 18.460938 14.46875 18.535156 C 14.445312 18.585938 14.417969 18.644531 14.386719 18.703125 C 14.355469 18.765625 14.324219 18.820312 14.296875 18.875 C 14.269531 18.925781 14.246094 18.96875 14.226562 19.003906 C 14.207031 19.039062 14.195312 19.058594 14.191406 19.0625 C 14.167969 19.050781 14.144531 19.039062 14.113281 19.015625 C 14.082031 18.996094 14.042969 18.976562 13.988281 18.957031 C 13.933594 18.9375 13.859375 18.925781 13.769531 18.917969 C 13.679688 18.910156 13.566406 18.910156 13.425781 18.921875 C 13.347656 18.933594 13.273438 18.953125 13.203125 18.992188 C 13.132812 19.027344 13.070312 19.074219 13.015625 19.128906 C 12.960938 19.183594 12.914062 19.246094 12.886719 19.3125 C 12.855469 19.382812 12.839844 19.449219 12.839844 19.507812 C 12.839844 19.664062 12.882812 19.792969 12.972656 19.886719 C 13.0625 19.984375 13.175781 20.066406 13.308594 20.140625 C 13.441406 20.210938 13.582031 20.28125 13.742188 20.351562 C 13.894531 20.417969 14.042969 20.503906 14.175781 20.597656 C 14.3125 20.695312 14.425781 20.820312 14.515625 20.964844 C 14.605469 21.113281 14.648438 21.300781 14.648438 21.53125 Z M 14.648438 21.53125 "/>
<path style=" stroke:none;fill-rule:nonzero;fill:rgb(93.333333%,68.627451%,29.411765%);fill-opacity:1;" d="M 8.355469 8.144531 L 8.355469 6.429688 C 8.355469 6.191406 8.550781 6 8.785156 6 C 9.023438 6 9.214844 5.808594 9.214844 5.570312 C 9.214844 5.335938 9.023438 5.144531 8.785156 5.144531 C 8.078125 5.144531 7.5 5.71875 7.5 6.429688 L 7.5 8.144531 C 7.5 8.617188 7.117188 9 6.644531 9 C 6.40625 9 6.214844 9.191406 6.214844 9.429688 C 6.214844 9.664062 6.40625 9.855469 6.644531 9.855469 C 7.117188 9.855469 7.5 10.242188 7.5 10.714844 L 7.5 12.429688 C 7.5 13.136719 8.078125 13.714844 8.785156 13.714844 C 9.023438 13.714844 9.214844 13.523438 9.214844 13.285156 C 9.214844 13.050781 9.023438 12.855469 8.785156 12.855469 C 8.550781 12.855469 8.355469 12.664062 8.355469 12.429688 L 8.355469 10.714844 C 8.355469 10.199219 8.125 9.742188 7.765625 9.429688 C 8.125 9.113281 8.355469 8.65625 8.355469 8.144531 Z M 8.355469 8.144531 "/>
<path style=" stroke:none;fill-rule:nonzero;fill:rgb(93.333333%,68.627451%,29.411765%);fill-opacity:1;" d="M 12.429688 7.929688 C 12.429688 8.285156 12.140625 8.570312 11.785156 8.570312 C 11.429688 8.570312 11.144531 8.285156 11.144531 7.929688 C 11.144531 7.574219 11.429688 7.285156 11.785156 7.285156 C 12.140625 7.285156 12.429688 7.574219 12.429688 7.929688 Z M 12.429688 7.929688 "/>
<path style=" stroke:none;fill-rule:nonzero;fill:rgb(93.333333%,68.627451%,29.411765%);fill-opacity:1;" d="M 16.929688 9 C 16.457031 9 16.070312 8.617188 16.070312 8.144531 L 16.070312 6.429688 C 16.070312 5.71875 15.496094 5.144531 14.785156 5.144531 C 14.546875 5.144531 14.355469 5.335938 14.355469 5.570312 C 14.355469 5.808594 14.546875 6 14.785156 6 C 15.023438 6 15.214844 6.191406 15.214844 6.429688 L 15.214844 8.144531 C 15.214844 8.65625 15.445312 9.113281 15.804688 9.429688 C 15.445312 9.742188 15.214844 10.199219 15.214844 10.714844 L 15.214844 12.429688 C 15.214844 12.664062 15.023438 12.855469 14.785156 12.855469 C 14.546875 12.855469 14.355469 13.050781 14.355469 13.285156 C 14.355469 13.523438 14.546875 13.714844 14.785156 13.714844 C 15.496094 13.714844 16.070312 13.136719 16.070312 12.429688 L 16.070312 10.714844 C 16.070312 10.242188 16.457031 9.855469 16.929688 9.855469 C 17.164062 9.855469 17.355469 9.664062 17.355469 9.429688 C 17.355469 9.191406 17.164062 9 16.929688 9 Z M 16.929688 9 "/>
<path style=" stroke:none;fill-rule:nonzero;fill:rgb(93.333333%,68.627451%,29.411765%);fill-opacity:1;" d="M 11.785156 10.285156 C 11.546875 10.285156 11.355469 10.476562 11.355469 10.714844 L 11.355469 12 C 11.355469 12.238281 11.546875 12.429688 11.785156 12.429688 C 12.023438 12.429688 12.214844 12.238281 12.214844 12 L 12.214844 10.714844 C 12.214844 10.476562 12.023438 10.285156 11.785156 10.285156 Z M 11.785156 10.285156 "/>
</g>
</svg>
